<svg version="1" xmlns="http://www.w3.org/2000/svg" width="693.333" height="693.333" viewBox="0 0 520.000000 520.000000"><path d="M0 260v260h520V0H0v260zm352.7-90c19.2 28.8 26.9 39.7 27.8 39 .6-.5 12.8-18.5 27.1-40l25.9-38.9 27.3-.1h27.3l-37.5 56c-20.7 30.8-37.6 56.3-37.6 56.6 0 .2 18.9 27 42 59.4s42 59.2 42 59.5c0 .3-12.1.5-26.9.5h-26.8l-31.2-43c-17.2-23.7-31.8-43-32.4-42.9-.7 0-15.1 19.3-32.2 42.9l-31 43h-26.9c-21.6 0-26.7-.3-26.3-1.3.3-.7 19.1-27.4 41.8-59.2 22.7-31.9 41.2-58.4 41.2-59 0-.5-16.4-25.5-36.5-55.5-20-30-36.8-55.1-37.2-55.8-.6-.9 5-1.2 26.3-1.2H326l26.7 40zm-153.4-36.9c42.4 8.6 77.2 43.4 87.4 87.4 1.4 6.3 1.8 11.9 1.7 26.5 0 16.7-.3 19.5-2.7 28.3-11.5 43-42.2 73.4-85.7 84.8-2.9.8-19.4 1.4-47.5 1.8l-43 .6-.3 46.2-.2 46.3H65V346.2c0-90.8.3-110.3 1.5-118.5 7-46.6 42.8-85.2 87.6-94.6 13.2-2.7 31.8-2.8 45.2 0z"/><path d="M163.5 177.7c-19.8 4.8-37.6 18.8-46.3 36.5-7.2 14.5-7.4 16.3-7.9 61.5l-.5 40.3h38.9c43.6 0 45-.2 58.8-7 14-6.9 23.6-16.5 30.5-30.5 2.2-4.4 4.8-10.9 5.7-14.5 2.1-8 2.3-26.2.4-34-1.8-7.6-8-20.4-12.9-27-8.6-11.5-23.4-21.2-37.2-24.4-6.1-1.5-24.8-2-29.5-.9z"/></svg>