<svg xmlns="http://www.w3.org/2000/svg" viewBox="0 0 120 120"><g transform="translate(7.5 11.25)" fill="none" fill-rule="evenodd"><path fill="#9F07A9" d="M56.968 93.285V10.817c22.473 0 40.69 18.461 40.69 41.234 0 22.773-18.217 41.234-40.69 41.234zm31.99-79.583c-2.358 0-4.27-6.985-4.27-9.375C84.688 1.937 86.6 0 88.958 0c2.359 0 4.27 1.937 4.27 4.327 0 2.39-1.911 9.375-4.27 9.375zm1.59 3.606c0-2.359 6.986-4.27 9.375-4.27 2.39 0 4.327 1.911 4.327 4.27 0 2.358-1.937 4.27-4.327 4.27-2.39 0-9.375-1.912-9.375-4.27z"/><path fill="#FFF" d="M56.968 81.74c16.18 0 29.297-12.923 29.297-28.864S73.148 24.012 56.968 24.012"/><path fill="#212B36" d="M76.5 47.103a8.033 8.033 0 0 0-4.884-1.65c-4.494 0-8.138 3.693-8.138 8.247 0 4.555 3.644 8.247 8.138 8.247 4.495 0 8.139-3.692 8.139-8.247 0-.7-.087-1.381-.25-2.031A3.256 3.256 0 0 1 76.5 53.7c-1.797 0-3.255-1.477-3.255-3.298 0-1.822 1.458-3.3 3.255-3.3h.001z"/><path fill="#FFBE00" d="M56.968 10.817v57.727H0c0-31.881 25.505-57.727 56.968-57.727zm0 82.468c-17.979 0-32.553-11.077-32.553-24.74h32.553v24.74z"/><path fill="#FFF" d="M52.085 24.113v-5.049c-22.09 0-40.508 15.925-44.686 37.062 7.532-17.92 24.563-30.755 44.686-32.013z"/><ellipse cx="27.67" cy="53.7" fill="#1F2B36" fill-rule="nonzero" rx="3.255" ry="3.299"/></g></svg>