<svg xmlns="http://www.w3.org/2000/svg" xmlns:xlink="http://www.w3.org/1999/xlink" width="221" height="62" viewBox="0 0 221 62">
  <defs>
    <circle id="default-a" cx="27.037" cy="27.368" r="26.867"/>
    <linearGradient id="default-c" x1="0%" y1="50.017%" y2="50.017%">
      <stop offset="1%" stop-color="#6176B9"/>
      <stop offset="69%" stop-color="#394A9F"/>
    </linearGradient>
    <linearGradient id="default-d" x1="0%" y1="50.026%" y2="50.026%">
      <stop offset="1%" stop-color="#6176B9"/>
      <stop offset="69%" stop-color="#394A9F"/>
    </linearGradient>
  </defs>
  <g fill="none" fill-rule="evenodd">
    <g fill="#4C4C4C" fill-rule="nonzero" transform="translate(72 21)">
      <path d="M6.693,3.19744231e-14 C13.004,3.19744231e-14 15.877,4.641 15.877,8.953 C15.877,13.603 13.038,18.293 6.692,18.293 L4.4408921e-15,18.293 L4.4408921e-15,0.025 L0.142,3.19744231e-14 L6.693,3.19744231e-14 Z M6.693,2.444 L2.519,2.444 L2.519,15.772 L6.693,15.772 C11.614,15.772 13.359,12.087 13.359,8.929 C13.359,5.7 11.297,2.444 6.693,2.444 Z M27.972,12.27 L27.974,5.318 L30.364,5.318 L30.364,18.288 L28.16,18.288 L28.069,16.51 C26.995,17.801 25.552,18.473 23.775,18.495 L23.773,18.495 C20.333,18.495 18.108,16.135 18.108,12.473 L18.108,5.317 L20.498,5.317 L20.498,12.446 C20.498,14.83 21.886,16.258 24.209,16.258 C26.389,16.238 27.972,14.557 27.972,12.27 Z M44.344,16.331 L44.443,16.428 L44.34,16.529 C43.016,17.852 41.391,18.522 39.512,18.522 C36.141,18.522 32.742,16.446 32.742,11.805 C32.742,7.782 35.46,5.082 39.512,5.082 C41.315,5.082 42.897,5.736 44.209,7.025 L44.312,7.123 L42.779,8.714 L42.676,8.616 C41.863,7.823 40.73,7.371 39.566,7.371 C36.972,7.371 35.16,9.195 35.16,11.805 C35.16,14.869 37.36,16.236 39.542,16.236 C40.801,16.236 41.94,15.781 42.751,14.945 L42.855,14.841 L44.344,16.331 Z M56.609,5.648 L50.81,11.447 L57.325,17.938 L57.325,18.296 L54.556,18.296 L48.773,12.511 L48.773,18.296 L46.405,18.296 L46.405,0.027 L48.773,0.027 L48.773,10.456 L53.784,5.318 L56.609,5.318 L56.609,5.648 Z" transform="translate(.116 1.05)"/>
      <path d="M6.695,3.19744231e-14 C13.008,3.19744231e-14 15.883,4.641 15.876,8.953 C15.876,13.603 13.037,18.293 6.688,18.293 L-4.4408921e-14,18.293 L-4.4408921e-14,0.025 L0.146,3.19744231e-14 L6.695,3.19744231e-14 Z M6.695,2.444 L2.523,2.444 L2.523,15.772 L6.695,15.772 C11.618,15.772 13.363,12.087 13.363,8.929 C13.363,5.7 11.299,2.444 6.695,2.444 Z M27.975,12.27 L27.974,12.27 L27.974,5.318 L30.366,5.318 L30.366,18.288 L28.161,18.288 L28.068,16.51 C26.994,17.801 25.551,18.473 23.775,18.495 L23.773,18.495 C20.335,18.495 18.109,16.135 18.109,12.473 L18.109,5.317 L20.499,5.317 L20.499,12.446 C20.499,14.83 21.889,16.258 24.209,16.258 C26.393,16.238 27.975,14.557 27.975,12.27 Z M44.348,16.331 L44.448,16.428 L44.344,16.529 C43.02,17.852 41.395,18.522 39.516,18.522 C36.148,18.522 32.745,16.446 32.745,11.805 C32.745,7.782 35.464,5.082 39.516,5.082 C41.32,5.082 42.9,5.736 44.212,7.025 L44.316,7.123 L42.784,8.714 L42.681,8.616 C41.866,7.823 40.732,7.371 39.568,7.371 C36.977,7.371 35.165,9.195 35.165,11.805 C35.165,14.869 37.366,16.236 39.547,16.236 C40.807,16.236 41.946,15.781 42.758,14.945 L42.858,14.841 L44.348,16.331 Z M56.611,5.648 L50.812,11.447 L57.331,17.938 L57.331,18.296 L54.561,18.296 L48.775,12.511 L48.775,18.296 L46.41,18.296 L46.41,0.027 L48.775,0.027 L48.775,10.456 L53.788,5.318 L56.611,5.318 L56.611,5.648 Z" transform="translate(59.334 1.05)"/>
      <path d="M142.254,6.084 C146.223,6.084 148.998,8.878 148.998,12.881 C148.998,16.759 146.16,19.573 142.254,19.573 C138.361,19.573 135.535,16.759 135.535,12.881 C135.535,8.943 138.361,6.084 142.254,6.084 Z M142.254,17.309 C144.805,17.309 146.605,15.49 146.634,12.88 C146.634,10.225 144.802,8.298 142.28,8.298 C139.717,8.298 137.926,10.182 137.926,12.881 C137.926,15.454 139.746,17.309 142.254,17.309 Z M125.703,11.482 L125.703,9.219 L133.615,9.219 L133.615,16.533 L133.578,16.572 C131.625,18.661 129.313,19.676 126.512,19.676 C119.486,19.676 116.994,14.66 116.994,10.363 C116.978,7.573 117.926,5.077 119.656,3.338 C121.363,1.623 123.726,0.716 126.486,0.716 C129.017,0.716 131.396,1.688 133.189,3.455 L133.283,3.547 L131.812,5.253 L131.705,5.147 C130.383,3.874 128.384,3.082 126.488,3.082 C121.677,3.082 119.488,6.856 119.488,10.364 C119.488,13.808 121.668,17.286 126.537,17.286 C128.307,17.286 129.952,16.682 131.301,15.539 L131.301,11.482 L125.703,11.482 Z"/>
    </g>
    <circle cx="31" cy="31" r="31" fill="#DE5833"/>
    <g transform="translate(3.963 3.632)">
      <mask id="default-b" fill="#fff">
        <use xlink:href="#default-a"/>
      </mask>
      <g mask="url(#default-b)">
        <g transform="translate(11.883 6.2)">
          <path fill="#D5D7D8" d="M20.9043333,48.8405 C19.6075,46.3191667 18.3675,43.9993333 17.5976667,42.4648333 C15.5516667,38.3676667 13.4953333,32.5913333 14.4305,28.8661667 C14.601,28.1893333 12.5033333,3.80266667 11.0205,3.01733333 C9.37233333,2.139 5.79183333,0.981666667 3.937,0.671666667 C2.64533333,0.465 2.35083333,0.826666667 1.80833333,0.909333333 C2.31983333,0.961 4.75333333,2.15966667 5.2235,2.22683333 C4.75333333,2.54716667 3.3635,2.2165 2.47483333,2.60916667 C2.02533333,2.81583333 1.6895,3.5805 1.69983333,3.94216667 C4.2315,3.68383333 8.18916667,3.937 10.5348333,4.9755 C8.66966667,5.18733333 5.83833333,5.425 4.619,6.06566667 C1.085,7.92566667 -0.475333333,12.2811667 0.454666667,17.4995 C1.3795,22.7075 5.47666667,41.7053333 6.78383333,48.05 C8.08583333,54.3895 23.064,53.0616667 20.8991667,48.8405 L20.9043333,48.8405 Z"/>
          <path fill="#FFF" d="M22.785,49.4553333 C21.2298333,46.3708333 19.6436667,43.4206667 18.724,41.5916667 C16.6728333,37.4893333 14.6268333,31.7181667 15.5568333,27.993 C15.7325,27.3161667 15.7325,24.5468333 16.2956667,24.18 C20.6408333,21.3383333 20.3308333,24.0818333 22.0771667,22.8108333 C22.9761667,22.1546667 23.6943333,21.3641667 24.0095,20.2791667 C25.1255,16.3628333 22.4595,9.548 19.4731667,6.56683333 C18.5018333,5.5955 17.0138333,4.98583333 15.3295,4.6655 C14.6836667,3.77683333 13.64,2.9295 12.1623333,2.139 C9.26427769,0.620874848 5.94736979,0.0980125195 2.72283333,0.651 C3.2395,0.702666667 4.40716667,1.75666667 4.87733333,1.82383333 C4.16433333,2.3095 2.26816667,2.2475 2.2785,3.32216667 C4.8205,3.06383333 7.60016667,3.46683333 9.94583333,4.5105 C8.08583333,4.71716667 6.34983333,5.18216667 5.13566667,5.82283333 C1.59133333,7.68283333 0.661333333,11.408 1.59133333,16.6263333 C2.5265,21.8446667 6.62366667,40.8476667 7.92566667,47.1768333 C9.23283333,53.5111667 24.7173333,53.2735 22.7901667,49.4553333 L22.785,49.4553333 Z"/>
        </g>
      </g>
      <path fill="#2D4F8E" d="M19.53,25.048 C18.4485344,25.048 17.5718333,24.1712989 17.5718333,23.0898333 C17.5718333,22.0083677 18.4485344,21.1316667 19.53,21.1316667 C20.6114656,21.1316667 21.4881667,22.0083677 21.4881667,23.0898333 C21.4881667,24.1712989 20.6114656,25.048 19.53,25.048 Z M20.4031667,22.9451667 C20.6828068,22.9451667 20.9095,22.7184735 20.9095,22.4388333 C20.9095,22.1591932 20.6828068,21.9325 20.4031667,21.9325 C20.1235265,21.9325 19.8968333,22.1591932 19.8968333,22.4388333 C19.8968333,22.7184735 20.1235265,22.9451667 20.4031667,22.9451667 Z M32.612,23.6065 C31.6846219,23.6065 30.9328333,22.8547115 30.9328333,21.9273333 C30.9328333,20.9999552 31.6846219,20.2481667 32.612,20.2481667 C33.5393781,20.2481667 34.2911667,20.9999552 34.2911667,21.9273333 C34.2911667,22.8547115 33.5393781,23.6065 32.612,23.6065 Z M33.3611667,21.8033333 C33.6008582,21.8033333 33.7951667,21.6090249 33.7951667,21.3693333 C33.7951667,21.1296418 33.6008582,20.9353333 33.3611667,20.9353333 C33.1214751,20.9353333 32.9271667,21.1296418 32.9271667,21.3693333 C32.9271667,21.6090249 33.1214751,21.8033333 33.3611667,21.8033333 Z"/>
      <path fill="url(#default-c)" d="M20.0931667,17.422 C20.0931667,17.422 18.6155,16.7503333 17.1843333,17.6545 C15.7531667,18.5535 15.8048333,19.4731667 15.8048333,19.4731667 C15.8048333,19.4731667 15.0453333,17.7785 17.0706667,16.9466667 C19.1011667,16.12 20.0931667,17.422 20.0931667,17.422 L20.0931667,17.422 Z"/>
      <path fill="url(#default-d)" d="M33.6246667,17.2876667 C33.6246667,17.2876667 32.5655,16.6831667 31.7388333,16.6935 C30.0493333,16.7141667 29.5895,17.4581667 29.5895,17.4581667 C29.5895,17.4581667 29.8736667,15.6808333 32.0333333,16.0373333 C32.7375486,16.1661022 33.3329412,16.6339107 33.6246667,17.2876667 Z"/>
      <path fill="#FDD20A" d="M25.5233333,30.6383333 C25.7196667,29.45 28.7783333,27.2128333 30.9483333,27.0733333 C33.1183333,26.939 33.79,26.97 35.5983333,26.536 C37.4118333,26.1071667 42.0773333,24.9446667 43.3638333,24.3453333 C44.6555,23.7511667 50.1321667,24.6398333 46.2726667,26.7943333 C44.6038333,27.7295 40.1036667,29.4448333 36.8848333,30.4058333 C33.6711667,31.3668333 31.7233333,29.4861667 30.6538333,31.0671667 C29.8065,32.3226667 30.4833333,34.0431667 34.3221667,34.3996667 C39.5095,34.8801667 44.4798333,32.0643333 45.0275,33.5626667 C45.5751667,35.061 40.5738333,36.921 37.5255,36.983 C34.4771667,37.0398333 28.3391667,34.968 27.4195,34.3273333 C26.4946667,33.6918333 25.2701667,32.1935 25.5233333,30.6383333 L25.5233333,30.6383333 Z"/>
      <g transform="translate(20.15 42.367)">
        <path fill="#65BC46" fill-rule="nonzero" d="M7.719,3.92666667 C7.719,3.92666667 0.434,0.0361666667 0.315166667,1.612 C0.191166667,3.193 0.315166667,9.6255 1.1625,10.1111667 C2.015,10.5968333 8.08583333,6.9595 8.08583333,6.9595 L7.72416667,3.9215 L7.719,3.92666667 Z M10.509,3.67866667 C10.509,3.67866667 15.4896667,-0.0878333333 16.585,0.155 C17.6751667,0.403 17.918,8.1685 16.9466667,8.5405 C15.9753333,8.90216667 10.2816667,6.572 10.2816667,6.572 L10.5141667,3.67866667 L10.509,3.67866667 Z"/>
        <path fill="#43A244" d="M5.95716667,4.33483333 C5.95716667,6.882 5.59033333,7.97733333 6.6805,8.22016667 C7.77583333,8.463 9.83733333,8.22016667 10.571,7.7345 C11.2943333,7.24883333 10.6898333,3.97316667 10.447,3.3635 C10.2041667,2.75383333 5.952,3.2395 5.952,4.33483333 L5.95716667,4.33483333 Z"/>
        <path fill="#65BC46" d="M6.42216667,3.77166667 C6.42216667,6.31883333 6.05533333,7.409 7.1455,7.65183333 C8.23566667,7.89983333 10.2971667,7.65183333 11.0308333,7.16616667 C11.7593333,6.6805 11.1548333,3.40483333 10.912,2.79516667 C10.6691667,2.1855 6.417,2.67633333 6.417,3.7665 L6.42216667,3.77166667 Z"/>
      </g>
    </g>
    <circle cx="31" cy="31" r="27.435" stroke="#FFF" stroke-width="1.989"/>
  </g>
</svg>
